<svg width="48" height="48" viewBox="0 0 48 48" fill="none" xmlns="http://www.w3.org/2000/svg">
<g clip-path="url(#clip0_253_2)">
<rect width="48" height="48" rx="4" fill="black"/>
<g filter="url(#filter0_d_253_2)">
<path fill-rule="evenodd" clip-rule="evenodd" d="M0 0H48V48H0V0ZM7.11121 28.3218L4.64615 28.813L8.12969 9.09461L10.5568 8.61096L21.3327 25.4879L18.8676 25.9791L15.8829 21.1861L8.03067 22.7508L7.11121 28.3218ZM9.99594 11.7324L14.7508 19.3681L8.37944 20.6377L9.84424 11.7626L9.99594 11.7324ZM34.4813 41.1628L38.3201 29.3511L35.743 28.5235L31.9042 40.3352L34.4813 41.1628ZM33.9245 24.3698C34.1476 24.8172 34.4774 25.111 34.9139 25.2511C35.3919 25.4046 35.8414 25.3611 36.2626 25.1206C36.6929 24.8752 36.9799 24.5289 37.1234 24.0819C37.2807 23.5922 37.2512 23.1365 37.0351 22.7148C36.8282 22.2883 36.4857 21.9983 36.0077 21.8448C35.5713 21.7046 35.1344 21.7444 34.697 21.964C34.255 22.1744 33.9554 22.5244 33.7982 23.014C33.6546 23.4611 33.6967 23.913 33.9245 24.3698ZM39.8996 26.2885C40.1297 26.7382 40.4629 27.0331 40.8994 27.1732C41.3774 27.3267 41.827 27.2832 42.2481 27.0427C42.6784 26.7973 42.9654 26.451 43.109 26.0039C43.2662 25.5143 43.2368 25.0586 43.0206 24.6369C42.8137 24.2104 42.4712 23.9203 41.9932 23.7668C41.5568 23.6267 41.1164 23.6653 40.6721 23.8828C40.2371 24.0953 39.9409 24.4464 39.7837 24.9361C39.6401 25.3832 39.6787 25.834 39.8996 26.2885ZM27.8304 35.5862L27.8304 35.5865L27.8299 35.5886L27.8272 35.6017C27.8245 35.614 27.8203 35.6334 27.8143 35.6594C27.8024 35.7112 27.7835 35.7892 27.7567 35.8891C27.7032 36.089 27.6183 36.3759 27.4945 36.7165C27.2459 37.4002 26.845 38.2877 26.235 39.1228C25.6257 39.957 24.8178 40.7257 23.7563 41.198C22.7008 41.6677 21.359 41.8604 19.6481 41.4896C18.3818 41.2152 17.3976 40.3418 16.6283 39.1001C15.8572 37.8557 15.3313 36.2855 14.9762 34.7204C14.6223 33.1602 14.4445 31.6336 14.3554 30.4943C14.338 30.2722 14.3241 30.0651 14.3128 29.8757L16.5951 32.1579C16.7904 32.3532 17.107 32.3532 17.3022 32.1579C17.4975 31.9627 17.4975 31.6461 17.3022 31.4508L14.1202 28.2688C13.925 28.0736 13.6084 28.0736 13.4131 28.2688L10.2311 31.4508C10.0359 31.6461 10.0359 31.9627 10.2311 32.1579C10.4264 32.3532 10.743 32.3532 10.9383 32.1579L13.3063 29.7899C13.3191 30.0231 13.336 30.2856 13.3584 30.5722C13.4499 31.7415 13.633 33.3193 14.001 34.9416C14.3679 36.559 14.9249 38.2496 15.7782 39.6268C16.6332 41.0067 17.8149 42.1156 19.4363 42.467C21.3352 42.8785 22.8956 42.6755 24.1628 42.1116C25.4242 41.5504 26.3597 40.6476 27.0426 39.7127C27.7248 38.7786 28.1649 37.7991 28.4343 37.0582C28.5694 36.6865 28.6628 36.3715 28.7227 36.1478C28.7527 36.0358 28.7743 35.9465 28.7888 35.884C28.796 35.8528 28.8013 35.8282 28.8051 35.8109L28.8094 35.7904L28.8106 35.7843L28.811 35.7824L28.8111 35.7816C28.8112 35.7814 28.8112 35.7811 28.3208 35.6838L28.8112 35.7811C28.865 35.5102 28.689 35.2471 28.4181 35.1934C28.1474 35.1397 27.8843 35.3155 27.8304 35.5862ZM33.1388 8.30626C36.2753 8.30627 38.2546 9.11871 39.4958 10.2643C40.7401 11.4127 41.3103 12.9581 41.5022 14.5558C41.6943 16.1556 41.5018 17.7705 41.2552 18.9969C41.1984 19.2796 41.139 19.5404 41.0812 19.7742L39.7332 16.8993C39.616 16.6493 39.3183 16.5417 39.0683 16.6589C38.8182 16.7761 38.7106 17.0738 38.8278 17.3239L40.7382 21.3982C40.8554 21.6483 41.1531 21.7559 41.4032 21.6387L45.4775 19.7283C45.7276 19.6111 45.8352 19.3134 45.718 19.0633C45.6007 18.8133 45.303 18.7057 45.053 18.8229L41.9897 20.2592C42.0695 19.954 42.1551 19.5947 42.2356 19.1939C42.4934 17.9116 42.7046 16.1815 42.495 14.4365C42.2852 12.6893 41.6479 10.8897 40.174 9.52943C38.6971 8.16631 36.4474 7.30627 33.1388 7.30626C27.7569 7.30625 24.0026 8.65283 21.5827 10.0179C20.3744 10.6995 19.5024 11.3837 18.9287 11.9024C18.6418 12.1618 18.4295 12.3797 18.287 12.5354C18.2157 12.6133 18.1619 12.6755 18.1249 12.7196C18.1064 12.7417 18.0921 12.7592 18.0819 12.7718L18.0697 12.7871L18.0659 12.7919L18.0646 12.7936L18.0641 12.7943C18.0639 12.7946 18.0637 12.7948 18.4593 13.1005L18.0637 12.7948C17.8948 13.0133 17.9351 13.3273 18.1536 13.4962C18.372 13.6649 18.6857 13.6248 18.8546 13.4067L18.8549 13.4063L18.855 13.4063L18.8609 13.3989C18.8668 13.3915 18.8768 13.3793 18.8908 13.3625C18.9189 13.3291 18.9633 13.2776 19.0246 13.2107C19.1471 13.0768 19.3372 12.8812 19.5993 12.6442C20.1235 12.1702 20.9361 11.5308 22.074 10.8889C24.3468 9.60682 27.9322 8.30625 33.1388 8.30626Z" fill="#6D5BB7"/>
</g>
</g>
<defs>
<filter id="filter0_d_253_2" x="-2" y="0" width="56" height="56" filterUnits="userSpaceOnUse" color-interpolation-filters="sRGB">
<feFlood flood-opacity="0" result="BackgroundImageFix"/>
<feColorMatrix in="SourceAlpha" type="matrix" values="0 0 0 0 0 0 0 0 0 0 0 0 0 0 0 0 0 0 127 0" result="hardAlpha"/>
<feOffset dx="2" dy="4"/>
<feGaussianBlur stdDeviation="2"/>
<feComposite in2="hardAlpha" operator="out"/>
<feColorMatrix type="matrix" values="0 0 0 0 1 0 0 0 0 1 0 0 0 0 1 0 0 0 0.25 0"/>
<feBlend mode="normal" in2="BackgroundImageFix" result="effect1_dropShadow_253_2"/>
<feBlend mode="normal" in="SourceGraphic" in2="effect1_dropShadow_253_2" result="shape"/>
</filter>
<clipPath id="clip0_253_2">
<rect width="48" height="48" rx="4" fill="white"/>
</clipPath>
</defs>
</svg>

