<svg width="56" height="56" viewBox="0 0 56 56" fill="none" xmlns="http://www.w3.org/2000/svg">
<g clip-path="url(#clip0_201_2)" filter="url(#filter0_d_201_2)">
<rect width="48" height="48" transform="translate(4)" fill="#33363F"/>
<g filter="url(#filter1_d_201_2)">
<path d="M10 10C10 8.11438 10 7.17157 10.5858 6.58579C11.1716 6 12.1144 6 14 6H42C43.8856 6 44.8284 6 45.4142 6.58579C46 7.17157 46 8.11438 46 10V38C46 39.8856 46 40.8284 45.4142 41.4142C44.8284 42 43.8856 42 42 42H14C12.1144 42 11.1716 42 10.5858 41.4142C10 40.8284 10 39.8856 10 38V10Z" stroke="#AD00FF" stroke-width="2" shape-rendering="crispEdges"/>
</g>
<path d="M10 25V27C10 28.8856 10 29.8284 10.5858 30.4142C11.1716 31 12.1144 31 14 31H18.5585C19.2542 31 19.6021 31 19.864 31.1888C20.1258 31.3775 20.2358 31.7075 20.4558 32.3675L21.5442 35.6325C21.7642 36.2925 21.8742 36.6225 22.136 36.8112C22.3979 37 22.7458 37 23.4415 37H32.5585C33.2542 37 33.6021 37 33.864 36.8112C34.1258 36.6225 34.2358 36.2925 34.4558 35.6325L35.5442 32.3675C35.7642 31.7075 35.8742 31.3775 36.136 31.1888C36.3979 31 36.7458 31 37.4415 31H42C43.8856 31 44.8284 31 45.4142 30.4142C46 29.8284 46 28.8856 46 27V25" stroke="#AC02FD" stroke-width="2"/>
<path d="M16.5084 24.5894L14.6899 24.9518L17.2598 10.405L19.0503 10.0482L27 22.4988L25.1815 22.8612L18.6366 12.351L18.5247 12.3733L16.5084 24.5894ZM16.1291 19.1827L23.4593 17.722L23.7482 19.1721L16.4181 20.6328L16.1291 19.1827Z" fill="#AC02FD"/>
<path d="M35.9729 23.7553L33.225 32.2103L31.3803 31.6179L34.1282 23.1629L35.9729 23.7553ZM33.5347 20.8205C33.2223 20.7202 32.9862 20.5099 32.8265 20.1896C32.6634 19.8627 32.6333 19.5392 32.736 19.2192C32.8486 18.8687 33.0631 18.6181 33.3795 18.4676C33.6925 18.3103 34.0053 18.2819 34.3177 18.3822C34.6598 18.4921 34.905 18.6997 35.0531 19.005C35.2078 19.3068 35.2289 19.633 35.1163 19.9835C35.0136 20.3036 34.8081 20.5514 34.5001 20.7271C34.1987 20.8992 33.8768 20.9304 33.5347 20.8205ZM37.8192 22.1964C37.5068 22.096 37.2682 21.8849 37.1035 21.5631C36.9454 21.2377 36.9178 20.915 37.0205 20.595C37.1331 20.2445 37.3451 19.9932 37.6565 19.841C37.9746 19.6854 38.2898 19.6577 38.6022 19.758C38.9444 19.8679 39.1895 20.0755 39.3376 20.3808C39.4923 20.6827 39.5134 21.0089 39.4008 21.3594C39.2981 21.6794 39.0927 21.9272 38.7846 22.1029C38.4832 22.2751 38.1614 22.3062 37.8192 22.1964Z" fill="#AC02FD"/>
<path d="M31.8021 29.1406C32.0336 28.831 31.9703 28.3923 31.6607 28.1608C31.3511 27.9293 30.9124 27.9926 30.6809 28.3022L31.8021 29.1406ZM25.7666 32.6066L25.6184 33.2907L25.7666 32.6066ZM22.4281 23.4461C22.1222 23.2097 21.6826 23.2659 21.4462 23.5718L17.5932 28.5562C17.3568 28.8621 17.4131 29.3017 17.7189 29.5382C18.0248 29.7746 18.4644 29.7183 18.7009 29.4125L22.1257 24.9819L26.5563 28.4067C26.8622 28.6432 27.3018 28.5869 27.5383 28.281C27.7747 27.9751 27.7184 27.5355 27.4126 27.2991L22.4281 23.4461ZM31.2415 28.7214C30.6809 28.3022 30.681 28.3021 30.681 28.3021C30.681 28.3021 30.681 28.302 30.681 28.302C30.6811 28.302 30.681 28.3021 30.6809 28.3022C30.6807 28.3024 30.6803 28.3029 30.6798 28.3037C30.6786 28.3052 30.6767 28.3078 30.674 28.3113C30.6687 28.3184 30.6603 28.3294 30.649 28.3441C30.6264 28.3735 30.5923 28.4176 30.5477 28.474C30.4584 28.587 30.3274 28.7493 30.1631 28.9432C29.8332 29.3323 29.3743 29.8423 28.8528 30.3347C28.3271 30.8309 27.7604 31.2877 27.2158 31.5894C26.656 31.8995 26.2224 31.9891 25.9149 31.9224L25.6184 33.2907C26.4166 33.4636 27.2202 33.1874 27.8942 32.814C28.5835 32.4321 29.2472 31.8876 29.8139 31.3527C30.3846 30.8138 30.8798 30.2627 31.231 29.8485C31.4071 29.6407 31.5483 29.4658 31.6462 29.342C31.6951 29.28 31.7333 29.2308 31.7596 29.1965C31.7728 29.1793 31.783 29.1659 31.7901 29.1565C31.7937 29.1518 31.7965 29.1481 31.7985 29.1454C31.7995 29.1441 31.8003 29.143 31.8009 29.1422C31.8012 29.1418 31.8014 29.1415 31.8016 29.1412C31.8017 29.1411 31.8018 29.1409 31.8019 29.1409C31.802 29.1407 31.8021 29.1406 31.2415 28.7214ZM25.9149 31.9224C25.5327 31.8396 25.0866 31.4559 24.6282 30.6614C24.1876 29.8978 23.8211 28.9024 23.5281 27.8866C23.2372 26.8775 23.0281 25.8817 22.8917 25.1353C22.8237 24.763 22.774 24.4547 22.7415 24.2404C22.7253 24.1333 22.7133 24.0498 22.7055 23.9936C22.7016 23.9655 22.6987 23.9443 22.6969 23.9304C22.696 23.9234 22.6953 23.9183 22.6949 23.915C22.6947 23.9134 22.6945 23.9123 22.6944 23.9116C22.6944 23.9113 22.6943 23.911 22.6943 23.9109C22.6943 23.9109 22.6943 23.9109 22.6943 23.9109C22.6943 23.9109 22.6943 23.911 22 23.9999C21.3057 24.0888 21.3057 24.089 21.3057 24.0891C21.3057 24.0892 21.3058 24.0894 21.3058 24.0896C21.3058 24.09 21.3059 24.0905 21.306 24.0912C21.3061 24.0924 21.3064 24.0942 21.3067 24.0964C21.3072 24.1009 21.3081 24.1073 21.3092 24.1155C21.3114 24.1319 21.3146 24.1557 21.3189 24.1865C21.3274 24.248 21.3402 24.3372 21.3574 24.4503C21.3917 24.6766 21.4436 24.9989 21.5145 25.387C21.6561 26.1616 21.8749 27.2061 22.183 28.2745C22.4891 29.3361 22.8929 30.4552 23.4155 31.361C23.9203 32.2359 24.6302 33.0765 25.6184 33.2907L25.9149 31.9224Z" fill="#AC02FD"/>
<path d="M23.0815 10.9389C22.7716 11.17 22.7077 11.6086 22.9389 11.9185C23.17 12.2284 23.6086 12.2923 23.9185 12.0611L23.0815 10.9389ZM30 8.99997L29.786 9.66646L30 8.99997ZM34.5231 16.6554C34.8702 16.8256 35.2896 16.6822 35.4598 16.3351L38.2334 10.6785C38.4036 10.3314 38.2602 9.912 37.9131 9.7418C37.566 9.5716 37.1466 9.71501 36.9764 10.0621L34.511 15.0902L29.4829 12.6248C29.1358 12.4546 28.7164 12.598 28.5462 12.9451C28.376 13.2922 28.5194 13.7116 28.8665 13.8818L34.5231 16.6554ZM23.5 11.5C23.9185 12.0611 23.9184 12.0612 23.9184 12.0612C23.9184 12.0612 23.9183 12.0613 23.9183 12.0613C23.9183 12.0613 23.9184 12.0612 23.9185 12.0611C23.9188 12.0609 23.9193 12.0605 23.9201 12.06C23.9216 12.0588 23.9242 12.0569 23.9277 12.0543C23.9349 12.049 23.9459 12.0409 23.9608 12.0301C23.9905 12.0085 24.0353 11.9761 24.0936 11.9348C24.2103 11.8522 24.3807 11.7339 24.5925 11.5937C25.0173 11.3125 25.603 10.9467 26.2517 10.6039C26.904 10.2593 27.5993 9.94887 28.2461 9.76617C28.9096 9.57878 29.4304 9.5523 29.786 9.66646L30.2139 8.33347C29.4692 8.09437 28.6272 8.20375 27.8656 8.41888C27.0874 8.63869 26.2952 8.99748 25.5976 9.36613C24.8964 9.73667 24.2698 10.1284 23.8197 10.4263C23.5941 10.5757 23.4115 10.7024 23.2845 10.7924C23.2209 10.8374 23.1712 10.8732 23.1368 10.8982C23.1197 10.9107 23.1063 10.9205 23.0971 10.9274C23.0924 10.9308 23.0888 10.9335 23.0862 10.9354C23.0849 10.9364 23.0838 10.9371 23.083 10.9377C23.0827 10.938 23.0823 10.9383 23.0821 10.9385C23.0819 10.9386 23.0818 10.9387 23.0817 10.9387C23.0816 10.9388 23.0815 10.9389 23.5 11.5ZM29.786 9.66646C30.2807 9.82526 30.8189 10.254 31.367 10.9144C31.9049 11.5625 32.3976 12.367 32.8191 13.1678C33.2387 13.9652 33.5774 14.7393 33.8115 15.3156C33.9283 15.6031 34.0184 15.8398 34.0791 16.0037C34.1094 16.0856 34.1323 16.1493 34.1474 16.1918C34.1549 16.2131 34.1605 16.2291 34.1641 16.2395C34.166 16.2447 34.1673 16.2485 34.1681 16.2508C34.1685 16.252 34.1687 16.2528 34.1689 16.2532C34.169 16.2534 34.169 16.2536 34.169 16.2536C34.169 16.2536 34.169 16.2536 34.169 16.2536C34.169 16.2535 34.169 16.2534 34.8313 16.0269C35.4936 15.8004 35.4936 15.8003 35.4935 15.8001C35.4935 15.8 35.4935 15.7998 35.4934 15.7997C35.4933 15.7993 35.4931 15.7989 35.4929 15.7984C35.4926 15.7973 35.4921 15.7959 35.4915 15.7941C35.4902 15.7905 35.4885 15.7854 35.4862 15.779C35.4817 15.766 35.4752 15.7474 35.4667 15.7234C35.4496 15.6754 35.4247 15.606 35.3921 15.518C35.327 15.3421 35.2316 15.0915 35.1085 14.7886C34.8629 14.1841 34.5052 13.3657 34.058 12.5158C33.6126 11.6694 33.068 10.7718 32.4443 10.0203C31.8308 9.28109 31.0832 8.61252 30.2139 8.33347L29.786 9.66646Z" fill="#AC02FD"/>
</g>
<defs>
<filter id="filter0_d_201_2" x="0" y="0" width="56" height="56" filterUnits="userSpaceOnUse" color-interpolation-filters="sRGB">
<feFlood flood-opacity="0" result="BackgroundImageFix"/>
<feColorMatrix in="SourceAlpha" type="matrix" values="0 0 0 0 0 0 0 0 0 0 0 0 0 0 0 0 0 0 127 0" result="hardAlpha"/>
<feOffset dy="4"/>
<feGaussianBlur stdDeviation="2"/>
<feComposite in2="hardAlpha" operator="out"/>
<feColorMatrix type="matrix" values="0 0 0 0 0 0 0 0 0 0 0 0 0 0 0 0 0 0 0.25 0"/>
<feBlend mode="normal" in2="BackgroundImageFix" result="effect1_dropShadow_201_2"/>
<feBlend mode="normal" in="SourceGraphic" in2="effect1_dropShadow_201_2" result="shape"/>
</filter>
<filter id="filter1_d_201_2" x="7" y="3" width="44" height="44" filterUnits="userSpaceOnUse" color-interpolation-filters="sRGB">
<feFlood flood-opacity="0" result="BackgroundImageFix"/>
<feColorMatrix in="SourceAlpha" type="matrix" values="0 0 0 0 0 0 0 0 0 0 0 0 0 0 0 0 0 0 127 0" result="hardAlpha"/>
<feOffset dx="1" dy="1"/>
<feGaussianBlur stdDeviation="1.5"/>
<feComposite in2="hardAlpha" operator="out"/>
<feColorMatrix type="matrix" values="0 0 0 0 0.801682 0 0 0 0 0.354697 0 0 0 0 0.913428 0 0 0 1 0"/>
<feBlend mode="normal" in2="BackgroundImageFix" result="effect1_dropShadow_201_2"/>
<feBlend mode="normal" in="SourceGraphic" in2="effect1_dropShadow_201_2" result="shape"/>
</filter>
<clipPath id="clip0_201_2">
<rect width="48" height="48" fill="white" transform="translate(4)"/>
</clipPath>
</defs>
</svg>
