<svg width="32" height="32" viewBox="0 0 32 32" fill="none" xmlns="http://www.w3.org/2000/svg">
<path fill-rule="evenodd" clip-rule="evenodd" d="M27 8H5V27C5 29.2091 6.79086 31 9 31H23C25.2091 31 27 29.2091 27 27V8ZM13.5 13.3077C13.5 12.4793 12.8284 11.8077 12 11.8077C11.1716 11.8077 10.5 12.4793 10.5 13.3077V25.25C10.5 26.0784 11.1716 26.75 12 26.75C12.8284 26.75 13.5 26.0784 13.5 25.25V13.3077ZM21.5 13.3077C21.5 12.4793 20.8284 11.8077 20 11.8077C19.1716 11.8077 18.5 12.4793 18.5 13.3077V25.25C18.5 26.0784 19.1716 26.75 20 26.75C20.8284 26.75 21.5 26.0784 21.5 25.25V13.3077Z" fill="#D9D9D9"/>
<path d="M3 8H29" stroke="#D9D9D9" stroke-width="3" stroke-linecap="round"/>
<path d="M10 7V5C10 3.34315 11.3431 2 13 2H19C20.6569 2 22 3.34315 22 5V7" stroke="#D9D9D9" stroke-width="3" stroke-linecap="round"/>
</svg>
